<svg xmlns="http://www.w3.org/2000/svg" xmlns:svgjs="http://svgjs.com/svgjs" xmlns:xlink="http://www.w3.org/1999/xlink" width="288" height="288"><svg xmlns="http://www.w3.org/2000/svg" width="288" height="288" enable-background="new 0 0 128 128" viewBox="0 0 128 128"><circle cx="64" cy="64" r="63.5" fill="#4dbf90" class="color51bee7 svgShape"/><path fill="#fff" d="M61.3 83.4v9.7c0 1.5 1.2 2.6 2.6 2.6 1.5 0 2.6-1.2 2.6-2.6v-9.7H61.3zM87.2 73.4l-9.6-11.1h7.8c1 0 2-.6 2.4-1.5.4-.9.3-2-.4-2.8L66 33.1c-1-1.2-3-1.2-4 0L40.5 57.9c-.7.8-.8 1.9-.4 2.8.4.9 1.4 1.5 2.4 1.5h7.8l-9.8 11.3c-.7.8-.8 1.9-.4 2.8.4.9 1.4 1.5 2.4 1.5h42.9c0 0 0 0 0 0 1.5 0 2.6-1.2 2.6-2.6C88.1 74.6 87.8 73.9 87.2 73.4z" class="colorfff svgShape"/></svg></svg>