<svg xmlns="http://www.w3.org/2000/svg" xmlns:svgjs="http://svgjs.com/svgjs" xmlns:xlink="http://www.w3.org/1999/xlink" width="288" height="288"><svg xmlns="http://www.w3.org/2000/svg" width="288" height="288" viewBox="0 0 32 32"><defs><linearGradient id="a"><stop class="stopColor5a5a5a svgShape" offset="0" stop-color="#5a5a5a"/><stop class="stopColor656e85 svgShape" offset="1" stop-color="#656e85"/></linearGradient><linearGradient id="b" x1="1056.035" x2="1031.176" y1="544.13" y2="517.701" gradientTransform="translate(-1063.491 499.682) scale(1.02524)" gradientUnits="userSpaceOnUse" xlink:href="#a"/></defs><g fill="#fff" class="colorfff svgShape" transform="translate(9 -1028.362)"><rect width="32" height="32" x="-9" y="1028.362" fill="url(#b)" rx="6.763" ry="6.763"/><path style="text-indent:0;text-align:start;line-height:normal;text-transform:none;block-progression:tb" fill-rule="evenodd" d="M12.438 9a.534.534 0 0 0-.438.531v5.938a.534.534 0 0 0 .531.531H14v7.656L16 25l2-1.344V16h1.469a.534.534 0 0 0 .531-.531V9.53A.534.534 0 0 0 19.469 9H12.53a.534.534 0 0 0-.094 0zm.624 1.063h5.876v4.874h-5.875v-4.874zM16 11c-.823 0-1.5.678-1.5 1.5S15.177 14 16 14s1.5-.678 1.5-1.5S16.823 11 16 11zm0 1c.282 0 .5.218.5.5 0 .282-.218.5-.5.5a.493.493 0 0 1-.5-.5c0-.282.218-.5.5-.5zm-1 4h2v.875h-1v1.25h1v.75h-1v1.25h1v.75h-1v1.25h1v1l-1 .688-1-.688V16z" class="color000 svgShape" color="#000" font-family="sans-serif" font-weight="400" overflow="visible" transform="translate(-9 1028.362)"/></g></svg></svg>