<svg xmlns="http://www.w3.org/2000/svg" fill="none" viewBox="0 0 48 48" height="48" width="48"><path fill="#28c59e" d="M23.5 8.99931C13.7685 7.11577 7.78168 9.56828 4.67345 11.6546C2.98473 12.7881 3.1166 15.0542 4.59503 16.4509L10.1552 21.7039L23.5 8.99931Z"></path><path fill="#28c59e" d="M40.1144 24.5C41.3221 34.4236 38.4775 40.4532 36.2743 43.5073C35.1305 45.0929 32.9643 45.0107 31.5498 43.6609L25.4553 37.8448L40.1144 24.5Z"></path><path fill="#28c59e" d="M18.5898 35.2718C18.5898 31.8099 16.1881 29.4082 12.7262 29.4082C9.26428 29.4082 6.86257 31.8099 6.86257 35.2718C6.86257 37.7812 7.08174 39.1948 7.25208 39.9145C7.35176 40.3356 7.66246 40.6463 8.08356 40.746C8.80327 40.9163 10.2168 41.1355 12.7262 41.1355C16.1881 41.1355 18.5898 38.7338 18.5898 35.2718Z"></path><path fill="rgba(143,250,184,0.64)" d="M28.0952 39.9909C27.116 40.7747 25.8752 40.9308 24.8083 40.2713C23.1904 39.2713 20.3023 37.0985 15.6019 32.3981C10.9015 27.6977 8.72871 24.8096 7.72865 23.1917C7.06915 22.1248 7.22533 20.884 8.00911 19.9047C9.13914 18.4928 11.3516 15.9666 15.6019 11.7163C23.3178 4.00037 37.4313 4.00032 40.7155 7.28446C43.9997 10.5686 43.9996 24.6821 36.2837 32.3981C32.0334 36.6484 29.5071 38.8609 28.0952 39.9909Z"></path><path fill="#28c59e" d="M26 15C22.134 15 19 18.134 19 22C19 25.866 22.134 29 26 29C29.866 29 33 25.866 33 22C33 18.134 29.866 15 26 15Z"></path></svg>